<svg id="icon-cube-diagram" viewBox="0 0 48.4 45.1" width="100%" height="100%"><path d="M47.5 33.7h.5v1h-.5zM46.6 34.7h-2v-1h2v1zm-4 0h-2v-1h2v1zm-4.1 0h-2v-1h2v1zm-4 0h-2v-1h2v1zm-4.1 0h-2v-1h2v1zm-4.1 0h-2v-1h2v1zm-4 0h-2v-1h2v1zm-4.1 0h-2v-1h2v1zm-4 0h-1.9v-1h1.9v1zM10.9 33.8h1v1h-1zM11.9 33h-1v-2h1v2zm0-3.9h-1v-2h1v2zm0-4h-1v-2h1v2zm0-3.9h-1v-2h1v2zm0-3.9h-1v-2h1v2zm0-3.9h-1v-2h1v2zm0-3.9h-1v-2h1v2zm0-4h-1v-2h1v2zm0-3.9h-1v-.3h1v.3zM10.9.5h1V1h-1z"></path><path d="M37.2 45.1H0V10.7L11.2 0h37.2v34.4L37.2 45.1zM1 44.1h35.8L47.4 34V1H11.6L1 11.1v33z"></path><path d="M37.4 11.3l-.7-.8L47 .7l.7.7zM2.2 43.7l-.7-.7L3 41.6l.7.7-1.5 1.4zm2.9-2.8l-.7-.7 1.4-1.4.7.7-1.4 1.4zM8 38.1l-.7-.7L8.8 36l.7.7L8 38.1zm2.9-2.7l-.7-.7.8-.8.7.7-.8.8z"></path><path d="M37.5 44.5h-1V11.4H1v-1h36.5z"></path></svg>