<svg id="icon-tools" viewBox="0 0 47.7 45.7" width="100%" height="100%"><path d="M3.7 44.5c-1 0-1.9-.3-2.6-1l.7-.7c1.1 1 2.8 1 3.9 0l16-15.3.7.7-16 15.3c-.8.7-1.7 1-2.7 1zM29.4 21.4l-.7-.7 2.9-2.8c.1-.1.4-.2.6-.1 3.9 1.8 7.2 1.5 9.7-1l1.5-1.5c2.4-2.3 2.4-5.9 1.3-8.6l-5.2 5c-.2.2-.5.2-.7 0l-4.6-4.4c-.1-.1-.2-.2-.2-.4s.1-.3.2-.4l5.1-4.9c-2.8-1-6.6-1.1-9 1.3l-1.5 1.5c-2.5 2.4-2.9 5.5-1 9.3.1.2.1.4-.1.6l-3.2 3.1-.7-.7 2.9-2.8c-1.9-4-1.4-7.4 1.4-10.1l1.5-1.5c3-2.9 7.6-2.7 10.8-1.2.2.1.3.2.3.4s0 .3-.1.4L35.3 7l3.9 3.7 5.4-5.1c.1-.1.3-.2.4-.1.2 0 .3.1.4.3 1.6 3.1 1.8 7.5-1.2 10.4l-1.5 1.5c-2.8 2.6-6.4 3.1-10.5 1.3l-2.8 2.4zM1.1 43.5C.4 42.8 0 41.9 0 40.9s.4-1.9 1.1-2.6l16.3-15.6.7.7L1.8 39.1c-.5.5-.8 1.1-.8 1.8s.3 1.3.8 1.8l-.7.8zM28.4 30.8c-13.6-13-16.7-16-17.4-16.7l-3.7-.7c-.1 0-.2-.1-.3-.2L.9 4.4C.7 4.2.8 4 1 3.8L4 .9c.2-.2.4-.2.6-.1l9.2 5.8c.1.1.2.2.2.4l.7 3.5c1.5 1.4 17.4 16.7 17.4 16.7l-.7.7-17.5-16.8c-.1-.1-.1-.2-.1-.3l-.7-3.4-8.7-5.5L2 4.2l5.7 8.2 3.6.7c.1 0 .2.1.3.1.1.1 17.5 16.8 17.5 16.8l-.7.8z"></path><path d="M42.5 45.7c-1 0-1.9-.3-2.6-1l-9-8.7c-.7-.1-3.7-.7-3.7-.7-.2 0-.3-.2-.4-.3-.9-2.5-.9-2.5-.6-2.7l7.6-7.3c.2-.2.2-.2 2.8.6.2.1.3.2.3.4 0 0 .6 2.8.7 3.5l9 8.6c.7.7 1.1 1.6 1.1 2.6s-.4 1.9-1.1 2.6l-1.5 1.5c-.7.6-1.7.9-2.6.9zM27.6 34.4c3.7.7 3.7.7 3.8.8l9.1 8.7c1.1 1 2.8 1 3.9 0l1.5-1.5c.5-.5.8-1.1.8-1.8s-.3-1.3-.8-1.8L36.8 30c-.1 0-.1 0-.8-3.5-.6-.2-1.3-.4-1.7-.6l-7.2 6.9c.1.3.3 1 .5 1.6z"></path></svg>