<svg width="49" height="49" xmlns="http://www.w3.org/2000/svg">

 <g>
  <title>background</title>
  <rect fill="none" id="canvas_background" height="402" width="582" y="-1" x="-1"/>
 </g>
 <g>
  <title>Layer 1</title>
  <path id="svg_1" d="m42.2751,9.60699c0,-1.59115 -1.29094,-2.88209 -2.88209,-2.88209c-1.59116,0 -2.8821,1.29094 -2.8821,2.88209c0,1.59116 1.29094,2.8821 2.8821,2.8821c1.59115,0 2.88209,-1.29094 2.88209,-2.8821zm6.7249,-8.64629c0,9.96726 -2.76201,16.60209 -9.87719,23.74729c-1.74127,1.71125 -3.72271,3.48253 -5.85426,5.28385l-0.60044,11.37828c-0.03002,0.30022 -0.21015,0.60044 -0.48035,0.78057l-11.52839,6.7249c-0.15011,0.09006 -0.30022,0.12008 -0.48035,0.12008c-0.24018,0 -0.48035,-0.09006 -0.69051,-0.27019l-1.9214,-1.9214c-0.24017,-0.2702 -0.33024,-0.63046 -0.24017,-0.9607l2.55186,-8.28604l-8.43614,-8.43614l-8.28604,2.55186c-0.09006,0.03002 -0.18013,0.03002 -0.27019,0.03002c-0.24018,0 -0.51038,-0.09006 -0.69051,-0.27019l-1.9214,-1.9214c-0.30021,-0.33024 -0.36026,-0.81059 -0.15011,-1.17086l6.7249,-11.52839c0.18013,-0.2702 0.48035,-0.45033 0.78057,-0.48035l11.37828,-0.60044c1.80132,-2.13155 3.5726,-4.11299 5.28385,-5.85426c7.50547,-7.47544 13.23964,-9.87719 23.68725,-9.87719c0.54039,0 1.02074,0.42031 1.02074,0.9607z" fill-rule="evenodd" fill="#ffffff"/>
 </g>
</svg>