<?xml version="1.0" encoding="UTF-8"?>
<svg width="22px" height="20px" viewBox="0 0 22 20" version="1.1" xmlns="http://www.w3.org/2000/svg" xmlns:xlink="http://www.w3.org/1999/xlink">
  <!-- Generator: Sketch 51.3 (57544) - http://www.bohemiancoding.com/sketch -->
  <title>Featured category</title>
  <desc>Created with Sketch.</desc>
  <defs></defs>
  <g id="Page-1" stroke="none" stroke-width="1" fill="none" fill-rule="evenodd">
    <g id="Desktop" transform="translate(-1396.000000, -1795.000000)" fill="#FFFFFF" fill-rule="nonzero">
      <g id="Featured-product" transform="translate(1379.000000, 1787.000000)">
        <path d="M23.5,10 L32.5,10 L32.5,16 C32.5,16.5522847 32.0522847,17 31.5,17 L24.5,17 C23.9477153,17 23.5,16.5522847 23.5,16 L23.5,10 Z M24,8 L32,8 C32.5522847,8 33,8.44771525 33,9 L33,9.57894737 L23,9.57894737 L23,9 C23,8.44771525 23.4477153,8 24,8 Z M28,14.95 L29.4694631,15.7225425 L29.1888206,14.0862712 L30.3776413,12.9274575 L28.7347316,12.6887288 L28,11.2 L27.2652684,12.6887288 L25.6223587,12.9274575 L26.8111794,14.0862712 L26.5305369,15.7225425 L28,14.95 Z M17.5,21 L26.5,21 L26.5,27 C26.5,27.5522847 26.0522847,28 25.5,28 L18.5,28 C17.9477153,28 17.5,27.5522847 17.5,27 L17.5,21 Z M18,19 L26,19 C26.5522847,19 27,19.4477153 27,20 L27,20.5789474 L17,20.5789474 L17,20 C17,19.4477153 17.4477153,19 18,19 Z M22,25.95 L23.4694631,26.7225425 L23.1888206,25.0862712 L24.3776413,23.9274575 L22.7347316,23.6887288 L22,22.2 L21.2652684,23.6887288 L19.6223587,23.9274575 L20.8111794,25.0862712 L20.5305369,26.7225425 L22,25.95 Z M29.5,21 L38.5,21 L38.5,27 C38.5,27.5522847 38.0522847,28 37.5,28 L30.5,28 C29.9477153,28 29.5,27.5522847 29.5,27 L29.5,21 Z M30,19 L38,19 C38.5522847,19 39,19.4477153 39,20 L39,20.5789474 L29,20.5789474 L29,20 C29,19.4477153 29.4477153,19 30,19 Z M34,25.95 L35.4694631,26.7225425 L35.1888206,25.0862712 L36.3776413,23.9274575 L34.7347316,23.6887288 L34,22.2 L33.2652684,23.6887288 L31.6223587,23.9274575 L32.8111794,25.0862712 L32.5305369,26.7225425 L34,25.95 Z" id="Featured-category"></path>
      </g>
    </g>
  </g>
</svg>
