<svg height="32.4" viewBox="0 0 195.1 32.4" width="195.1" xmlns="http://www.w3.org/2000/svg"><path d="m86.2 9.2c-4.2 0-7.5 3.3-7.5 7.4 0 4 3.4 7.4 7.5 7.4 4.3 0 7.6-3.2 7.6-7.4s-3.3-7.4-7.6-7.4zm-.1 13.5c-3.4 0-6-2.9-6-6.1 0-3.3 2.6-6.1 6-6.1 3.6 0 6.3 2.6 6.3 6.1s-2.7 6.1-6.3 6.1zm83.4-17.2c.7 0 1.3-.6 1.3-1.2 0-.7-.6-1.2-1.3-1.2s-1.3.6-1.3 1.2.6 1.2 1.3 1.2zm-5.9 0c.7 0 1.3-.6 1.3-1.2 0-.7-.6-1.2-1.3-1.2s-1.3.6-1.3 1.2c.1.6.6 1.2 1.3 1.2zm-16.3-1h-1.4v5h-1.6v1.3h1.6v12.9h1.4v-12.9h2.5v-1.3h-2.5zm19.2 4.7c-4.2 0-7.5 3.3-7.5 7.4 0 4 3.4 7.4 7.5 7.4 4.3 0 7.6-3.2 7.6-7.4s-3.3-7.4-7.6-7.4zm-.1 13.5c-3.4 0-6-2.9-6-6.1 0-3.3 2.6-6.1 6-6.1 3.6 0 6.3 2.6 6.3 6.1s-2.8 6.1-6.3 6.1zm-12.9-11.3-.1-1.8h-1.4v14.2h1.4v-7.2c0-2.1-.2-6 3-6 .4 0 .7.1 1 .3l.8-1.2c-.5-.2-1-.3-1.5-.3-1.6-.2-2.7.7-3.2 2zm37.1-2.2c-1.8 0-3.4.9-4.2 2.6-.8-1.7-2.2-2.6-4.1-2.6-1.5 0-3 .8-3.6 2.1h-.1v-1.8h-1.4v14.2h1.4v-7.8c0-2.3.6-5.4 3.6-5.4 2.8 0 3.2 2.2 3.2 4.4v8.7h1.4v-8.2c0-2.5.7-5 3.7-5 2.8 0 3.1 1.9 3.1 4.1v9.1h1.4v-8.9c.1-3-.6-5.5-4.4-5.5zm-55.2 3.5c0-1.2 1.3-2.2 2.5-2.2 1.1 0 2.1.6 2.5 1.6l1.2-.6c-.6-1.3-2.2-2.3-3.7-2.3-2.1 0-4 1.4-4 3.6 0 2.4 2.3 3.2 4.2 3.9 1.4.5 2.8 1 2.8 2.8s-1.4 3.2-3.3 3.2-3.1-1.2-3.6-2.9l-1.4.4c.6 2.3 2.6 3.7 5 3.7 2.6 0 4.7-1.8 4.7-4.4.1-5-6.9-3.4-6.9-6.8zm-34 8.5-5.3-11.7h-1.4l6.6 15 6.7-15h-1.5zm14.4-12c-4.2 0-7 3.4-7 7.4s2.7 7.4 7 7.4c2.9 0 5.2-1.4 6.5-3.8l-1.2-.7c-1 1.9-2.9 3.2-5.1 3.2-3.4 0-5.9-2.4-5.8-6h12.6c0-4-2.6-7.5-7-7.5zm.1 1.3c3 0 5.2 2.3 5.5 4.9h-11.2c.3-2.6 2.7-4.9 5.7-4.9zm11.5.9-.1-1.8h-1.4v14.2h1.4v-7.2c0-2.1-.2-6 3-6 .4 0 .7.1 1 .3l.8-1.2c-.5-.2-1-.3-1.5-.3-1.6-.2-2.7.7-3.2 2zm-50.8 4.3-1.3-.3-1.8 3.4-6-7.8.1-.1c2.5-1.4 4.9-2.9 4.9-5.9 0-3.3-2.4-4.8-4.7-4.8-2.8 0-4.9 2.1-4.9 4.7 0 1.7.5 3 2 5l.6.8-.1.1c-3 1.6-5.7 3.5-5.7 7.4 0 3.8 3 6.4 7.4 6.4 2.7 0 5-1.1 6.6-3.1l.1-.1 2.2 2.8h1.8l-3.3-4.2zm-12.3-10.8c0-2 1.4-3.5 3.4-3.5 1.9 0 3.2 1.4 3.2 3.5 0 2.3-1.5 3.6-4.1 5h-.1l-.9-1.2c-1.1-1.3-1.5-2.4-1.5-3.8zm8.4 15.3c-1.3 2-3.3 3-5.7 3-3.5 0-5.8-2-5.8-5.1 0-3.4 2.5-5.1 4.9-6.5h.1l.1.1zm-18-8.1c-1.4-1.8-3.2-2.8-5.5-2.8-4.2 0-7.2 3.4-7.2 7.5s2.8 7.6 7 7.6c2.2 0 4.4-1.1 5.6-2.8h.1v1.8c0 1.9-.2 3.8-1.3 5.5-1.1 1.5-2.8 2.2-4.6 2.2-2.9 0-5.5-1.9-5.6-4.9h-1.4c.2 4 3.4 6.2 7.2 6.2 2.3 0 4.4-.9 5.8-2.8s1.4-3.9 1.4-6.2v-13.8h-1.4v2.5zm-5.7 11c-3.5 0-5.7-3-5.7-6.3 0-3.1 2.3-6.2 5.6-6.2 3.5 0 5.8 2.6 5.8 6 .1 3.5-2 6.5-5.7 6.5zm-12.8-11.6-.1-1.9h-1.4v14.5h1.4v-7.4c0-2.1-.2-6.1 3-6.1.4 0 .7.1 1 .3l.8-1.3c-.5-.2-1-.3-1.5-.3-1.6 0-2.6.9-3.2 2.2zm-12.2-2.2c-4.2 0-7.5 3.4-7.5 7.6 0 4.1 3.4 7.5 7.5 7.5 4.3 0 7.6-3.3 7.6-7.6 0-4.2-3.3-7.5-7.6-7.5zm-.1 13.8c-3.4 0-6-2.9-6-6.2 0-3.4 2.6-6.3 6-6.3 3.6 0 6.3 2.7 6.3 6.3 0 3.5-2.8 6.2-6.3 6.2zm-16.8-13.8c-2.2 0-4.4 1-5.6 2.8h-.1v-12.1h-1.4v24.1h1.4v-2.6h.1c1.1 1.9 3.4 2.9 5.5 2.9 4.4 0 7.1-3.4 7.1-7.7 0-4.2-2.7-7.4-7-7.4zm-.1 13.8c-3.6 0-5.7-2.9-5.7-6.3 0-3.5 2.1-6.2 5.8-6.2 3.4 0 5.6 3 5.6 6.2 0 3.3-2.1 6.3-5.7 6.3z" fill="#fefefe"/></svg>